<svg width="365mm" height="100mm" version="1.1" viewBox="0 0 365 100" xmlns="http://www.w3.org/2000/svg">
<rect x=".29766" y=".29766" width="100" height="100" fill="#7f7f7f" style="paint-order:fill markers stroke"></rect>
<path d="m22.21 26.757c6.0748 6.6507 13.56 14.699 14.876 23.32l12.994-0.10397v-49.45h-20.479v12.747c-2.8182-4.4954-6.0122-8.7445-9.4567-12.747h-18.475v49.45h20.542z" stroke-width="1.5525" aria-label="N"></path>
<path d="m62.292 46.527c4.2655 2.4229 9.3591 3.9558 14.465 3.4876 7.6075-0.66677 14.202-5.8604 18.137-12.565 7.6694-13.069 3.9406-25.682-8.168-32.56-4.2655-2.4229-9.5141-4.1086-14.592-3.689-7.5505 0.5696-14.081 6.3828-17.93 12.942-3.849 6.5589-5.7009 15.03-2.4556 21.796 2.1694 4.536 6.2775 8.1651 10.543 10.588zm16.623-18.218c-1.6536 2.8179-5.2969 6.8377-8.6451 4.9359-3.3023-1.8758-1.6314-7.0159 0.02228-9.8338 1.6251-2.7693 5.2857-6.7145 8.588-4.8387 3.3941 1.9279 1.6599 6.9673 0.03478 9.7367z" fill="#4472c4" stroke-width="1.3627" aria-label="O"></path>
<path d="m15.947 99.387h28.12c6.0748-16.073 4.1079-32.576 5.9426-49.45l-12.832 6e-6c-2.192 8.8677-4.4465 17.674-7.1395 26.357-2.7556-8.6829-5.467-17.489-7.6589-26.357h-20.711c3.3192 16.873 8.2042 33.377 14.279 49.45z" aria-label="V"></path>
<path d="m98.357 99.546v-49.45h-30.186c-6.8264 0-11.336 5.4191-12.588 11.639l-11.523 37.603 24.362 0.20796 1.5031-9.114h8.7052v9.114zm-19.728-22.662h-6.388l1.8788-10.961h4.5092z" stroke-width="1.5525" aria-label="A"></path>
<g>
<rect x="100.31" y=".29766" width="265.03" height="100" fill="#4472c4" style="paint-order:fill markers stroke"></rect>
<text transform="scale(.96554 1.0357)" x="112.22835" y="64.423027" fill="#ffffff" font-family="'Avenir Next'" font-size="17.639px" font-weight="bold" stroke-width=".5173" style="font-variant-caps:normal;font-variant-east-asian:normal;font-variant-ligatures:normal;font-variant-numeric:normal;line-height:1.25" xml:space="preserve"><tspan x="112.22835" y="64.423027" dx="0 0 0 0 0 0 0 0 0 0 0 0 0 0 0 -7.1129227" style="font-variant-caps:normal;font-variant-east-asian:normal;font-variant-ligatures:normal;font-variant-numeric:normal">The Northern V irginia</tspan><tspan x="112.22835" y="86.471657" style="font-variant-caps:normal;font-variant-east-asian:normal;font-variant-ligatures:normal;font-variant-numeric:normal">Internet Access Collective</tspan></text>
<text x="106.80731" y="36.110313" fill="#ffffff" font-family="'Avenir Next'" font-size="52.916px" font-weight="900" stroke-width="1.3229" style="font-variant-caps:normal;font-variant-east-asian:normal;font-variant-ligatures:normal;font-variant-numeric:normal;line-height:1.25" xml:space="preserve"><tspan x="106.80731" y="36.110313" fill="#ffffff" font-family="'Avenir Next'" font-size="52.916px" font-weight="900" stroke-width="1.3229" style="font-variant-caps:normal;font-variant-east-asian:normal;font-variant-ligatures:normal;font-variant-numeric:normal">nova.org</tspan></text>
</g>
</svg>
